<svg width="20" height="18" viewBox="0 0 20 18" fill="none" xmlns="http://www.w3.org/2000/svg">
<path d="M18.9941 10.9824C19.0196 11.0775 19.0261 11.1768 19.0133 11.2744C19.0004 11.3721 18.9684 11.4662 18.9192 11.5515C18.8699 11.6368 18.8044 11.7116 18.7262 11.7715C18.6481 11.8315 18.5589 11.8755 18.4638 11.901L16.1147 12.5304L16.7441 14.8794C16.7697 14.9746 16.7763 15.0739 16.7635 15.1716C16.7507 15.2693 16.7188 15.3636 16.6696 15.449C16.6203 15.5343 16.5547 15.6092 16.4766 15.6692C16.3984 15.7292 16.3092 15.7732 16.214 15.7987C16.1188 15.8242 16.0195 15.8307 15.9218 15.8178C15.8241 15.8049 15.7298 15.7729 15.6445 15.7236C15.5592 15.6743 15.4844 15.6086 15.4245 15.5304C15.3646 15.4521 15.3206 15.3628 15.2952 15.2676L14.5521 12.4942L10.7499 10.299V14.6893L12.7803 16.7196C12.9209 16.8603 13 17.0511 13 17.25C13 17.4489 12.921 17.6397 12.7803 17.7803C12.6397 17.921 12.4489 18 12.25 18C12.0511 18 11.8603 17.921 11.7196 17.7804L9.99994 16.0607L8.28026 17.7804C8.1396 17.921 7.94883 18 7.74991 18C7.55099 18 7.36023 17.921 7.21958 17.7803C7.07893 17.6397 6.99992 17.4489 6.99993 17.25C6.99993 17.0511 7.07896 16.8603 7.21962 16.7197L9.24994 14.6893V10.299L5.44783 12.4942L4.70467 15.2676C4.65319 15.4598 4.5275 15.6236 4.35524 15.723C4.18298 15.8225 3.97826 15.8495 3.78612 15.798C3.59398 15.7465 3.43016 15.6208 3.3307 15.4486C3.23124 15.2763 3.20428 15.0716 3.25576 14.8794L3.88523 12.5304L1.53612 11.901C1.4409 11.8755 1.35162 11.8316 1.27338 11.7717C1.19515 11.7117 1.12949 11.637 1.08017 11.5517C1.03085 11.4663 0.998827 11.3721 0.985936 11.2744C0.973045 11.1767 0.979537 11.0774 1.00504 10.9822C1.03055 10.887 1.07456 10.7978 1.13458 10.7196C1.19459 10.6414 1.26942 10.5758 1.35479 10.5266C1.44017 10.4774 1.53441 10.4454 1.63213 10.4326C1.72985 10.4199 1.82913 10.4264 1.9243 10.452L4.69787 11.1952L8.50001 9.00002L4.69787 6.80486L1.9243 7.54799C1.82913 7.57359 1.72985 7.58018 1.63213 7.56739C1.53441 7.55459 1.44017 7.52266 1.35479 7.47343C1.26942 7.42419 1.19459 7.35861 1.13458 7.28043C1.07456 7.20226 1.03055 7.11302 1.00504 7.01782C0.979538 6.92262 0.973046 6.82333 0.985937 6.72563C0.998828 6.62792 1.03085 6.53371 1.08017 6.44838C1.12949 6.36306 1.19515 6.28829 1.27338 6.22836C1.35162 6.16842 1.4409 6.12449 1.53612 6.09908L3.88523 5.46966L3.25576 3.12059C3.23016 3.02542 3.22357 2.92614 3.23636 2.82842C3.24916 2.7307 3.28109 2.63645 3.33032 2.55108C3.37956 2.46571 3.44514 2.39088 3.52332 2.33086C3.6015 2.27085 3.69073 2.22683 3.78593 2.20133C3.88113 2.17583 3.98042 2.16933 4.07812 2.18222C4.17583 2.19512 4.27004 2.22714 4.35537 2.27646C4.44069 2.32578 4.51546 2.39144 4.57539 2.46967C4.63533 2.54791 4.67926 2.63719 4.70467 2.73241L5.44782 5.50588L9.24994 7.70102V3.31071L7.21962 1.28038C7.07896 1.13973 6.99993 0.948967 6.99993 0.75005C6.99992 0.551133 7.07893 0.36036 7.21958 0.219698C7.36023 0.0790365 7.55099 8.61714e-06 7.74991 7.04664e-10C7.94883 -8.61573e-06 8.1396 0.0790026 8.28026 0.219652L9.99994 1.93938L11.7196 0.219652C11.7893 0.150009 11.872 0.0947673 11.963 0.0570794C12.054 0.0193914 12.1515 -4.26305e-06 12.25 7.04664e-10C12.3485 4.26445e-06 12.446 0.0194082 12.537 0.0571041C12.628 0.0947999 12.7107 0.150049 12.7803 0.219698C12.8499 0.289346 12.9052 0.37203 12.9429 0.463028C12.9806 0.554026 13 0.651556 13 0.75005C13 0.848544 12.9806 0.946072 12.9429 1.03707C12.9052 1.12806 12.8499 1.21074 12.7803 1.28038L10.7499 3.31071V7.70102L14.5521 5.50588L15.2952 2.73241C15.3207 2.63727 15.3647 2.54808 15.4246 2.46994C15.4846 2.3918 15.5594 2.32623 15.6446 2.27698C15.7299 2.22774 15.8241 2.19577 15.9218 2.18291C16.0194 2.17005 16.1186 2.17655 16.2138 2.20204C16.3089 2.22753 16.3981 2.27151 16.4762 2.33146C16.5544 2.39142 16.6199 2.46618 16.6692 2.55147C16.7184 2.63677 16.7504 2.73093 16.7633 2.82858C16.7761 2.92623 16.7696 3.02546 16.7441 3.12059L16.1147 5.46965L18.4638 6.09908C18.559 6.12449 18.6483 6.16842 18.7265 6.22835C18.8047 6.28829 18.8704 6.36306 18.9197 6.44838C18.969 6.5337 19.0011 6.62791 19.0139 6.72562C19.0268 6.82333 19.0203 6.92262 18.9948 7.01782C18.9693 7.11301 18.9253 7.20225 18.8653 7.28043C18.8053 7.3586 18.7305 7.42418 18.6451 7.47342C18.5597 7.52266 18.4655 7.55459 18.3678 7.56738C18.27 7.58018 18.1708 7.57359 18.0756 7.54799L15.302 6.80486L11.4999 9.00002L15.302 11.1952L18.0756 10.452C18.2677 10.4006 18.4724 10.4275 18.6447 10.527C18.8169 10.6265 18.9426 10.7903 18.9941 10.9824Z" fill="#FDB017"/>
</svg>
