<svg width="39" height="50" viewBox="0 0 39 50" fill="none" xmlns="http://www.w3.org/2000/svg">
<path d="M19.0446 0C8.53531 -2.99933e-08 0 8.54117 0 19.0504C2.99933e-07 29.5597 8.53531 38.095 19.0446 38.095C29.5539 38.095 38.0892 29.5597 38.0892 19.0504C38.0892 8.54117 29.5539 0 19.0446 0ZM19.0446 1.58754C28.6961 1.58754 36.5016 9.39893 36.5016 19.0504C36.5016 28.702 28.6961 36.5075 19.0446 36.5075C9.39307 36.5075 1.58754 28.702 1.58754 19.0504C1.58754 9.39893 9.39307 1.58754 19.0446 1.58754Z" fill="#FBB017"/>
<path d="M19.0446 4.76261C11.165 4.76261 4.76261 11.1708 4.76261 19.0504C4.76261 26.93 11.165 33.3324 19.0446 33.3324C26.9242 33.3324 33.3266 26.93 33.3266 19.0504C33.3266 11.1708 26.9242 4.76261 19.0446 4.76261ZM19.0446 6.35015C26.0664 6.35015 31.739 12.0286 31.739 19.0504C31.739 26.0723 26.0664 31.7449 19.0446 31.7449C12.0227 31.7449 6.34429 26.0723 6.34429 19.0504C6.34429 12.0286 12.0227 6.35015 19.0446 6.35015Z" fill="#FBB017"/>
<path d="M8.72853 34.92V49.2019C8.7292 49.8334 9.43133 50.2112 9.95872 49.8639L19.0446 43.8066L28.1246 49.8639C28.653 50.2187 29.3631 49.8384 29.3607 49.2019V34.92H27.7731V47.7198L19.4839 42.1957C19.2178 42.0187 18.8714 42.0187 18.6052 42.1957L10.3161 47.7198V34.92H8.72853Z" fill="#FBB017"/>
<path d="M12.7003 14.2878C12.7003 14.2878 12.1383 14.2759 11.5521 14.569C10.9659 14.8622 10.3149 15.5145 10.3161 16.6662V24.6039C10.3161 25.7767 10.9601 26.4079 11.5463 26.7011C12.1324 26.9942 12.6944 26.9823 12.6944 26.9823H14.282C14.282 26.9823 14.844 26.9942 15.4302 26.7011C16.0163 26.4079 16.6615 25.7687 16.6604 24.6039L16.6662 16.6662C16.6662 15.5122 16.0163 14.8622 15.4302 14.569C14.844 14.2759 14.282 14.2878 14.282 14.2878H12.7003ZM12.7003 15.8754H14.282C14.282 15.8754 14.5134 15.8827 14.7213 15.9867C14.9293 16.0907 15.0787 16.2861 15.0787 16.6662L15.0728 24.6039C15.0728 25.0045 14.9293 25.1794 14.7213 25.2834C14.5134 25.3874 14.282 25.3947 14.282 25.3947L12.6945 25.3946C12.6888 25.3944 12.4605 25.3862 12.2551 25.2834C12.0471 25.1794 11.9032 25.0133 11.9036 24.6039V16.6662C11.9032 16.2625 12.053 16.0907 12.2609 15.9867C12.4689 15.8827 12.7003 15.8754 12.7003 15.8754Z" fill="#FBB017"/>
<path d="M22.0263 10.3454C21.7419 10.4151 21.519 10.6357 21.4464 10.9194C20.7872 13.5561 18.2185 15.6497 17.9374 15.8754H15.8695V17.4629H18.2479C18.421 17.464 18.5897 17.4084 18.7283 17.3047C18.7283 17.3047 21.7125 15.0806 22.8039 11.9063C22.8039 11.9063 22.8785 11.9063 23.0456 12.0735C23.3291 12.3569 23.7992 13.4118 23.0339 16.4729C22.9053 16.9765 23.2874 17.4657 23.8072 17.4629H26.004C26.3166 17.4629 26.495 17.7233 26.3789 18.0136L24.5219 22.6649C24.2449 23.3574 23.5748 23.8072 22.8289 23.8072H15.8695V25.3947H22.8289C24.219 25.3947 25.476 24.5472 25.9923 23.2565L27.8551 18.6052C28.3681 17.3227 27.3853 15.8754 26.004 15.8754H24.7922C25.3259 13.3207 24.9614 11.7397 24.1704 10.9487C23.2635 10.0418 22.0263 10.3454 22.0263 10.3454Z" fill="#FBB017"/>
</svg>
