<svg width="53" height="50" viewBox="0 0 53 50" fill="none" xmlns="http://www.w3.org/2000/svg">
<path d="M48.1777 23.6332V22.6651H50.057C50.5287 22.6651 50.9112 22.2827 50.9112 21.8109V19.0205H51.8793C52.3511 19.0205 52.7335 18.638 52.7335 18.1663V15.4328C52.7335 15.1263 52.5693 14.8431 52.3031 14.6911L26.7906 0.1125C26.5279 -0.0375 26.2055 -0.0375 25.943 0.1125L0.43041 14.6911C0.164237 14.8431 0 15.1262 0 15.4328V18.1663C0 18.638 0.38246 19.0205 0.854215 19.0205H1.82232V21.8109C1.82232 22.2827 2.20478 22.6651 2.67654 22.6651H4.55581V23.6332C4.55581 24.2969 4.92426 24.8756 5.46697 25.1771V41.0023H2.67654C2.20478 41.0023 1.82232 41.3847 1.82232 41.8565V44.6469H0.854215C0.38246 44.6469 0 45.0294 0 45.5011V49.1458C0 49.6175 0.38246 50 0.854215 50H51.8793C52.3511 50 52.7335 49.6175 52.7335 49.1458V45.5011C52.7335 45.0294 52.3511 44.6469 51.8793 44.6469H50.9112V41.8565C50.9112 41.3847 50.5287 41.0023 50.057 41.0023H47.2665V25.1771C47.8092 24.8756 48.1777 24.2969 48.1777 23.6332ZM46.4693 23.6332C46.4693 23.6647 46.4438 23.6902 46.4123 23.6902H42.7677C42.7362 23.6902 42.7107 23.6647 42.7107 23.6332V22.6651H46.4693V23.6332ZM38.1549 41.0023V25.1771C38.6976 24.8756 39.0661 24.2969 39.0661 23.6332V22.6651H41.0023V23.6332C41.0023 24.2969 41.3708 24.8756 41.9135 25.1771V41.0023H38.1549ZM34.5103 41.0023V25.3986H36.4465V41.0023H34.5103ZM29.0433 41.0023V25.1771C29.586 24.8756 29.9545 24.2969 29.9545 23.6332V22.6651H31.8907V23.6332C31.8907 24.2969 32.2591 24.8756 32.8018 25.1771V41.0023H29.0433ZM25.3986 41.0023V25.3986H27.3349V41.0023H25.3986ZM19.9317 41.0023V25.1771C20.4744 24.8756 20.8428 24.2969 20.8428 23.6332V22.6651H22.7791V23.6332C22.7791 24.2969 23.1475 24.8756 23.6902 25.1771V41.0023H19.9317ZM16.287 41.0023V25.3986H18.2232V41.0023H16.287ZM10.8201 41.0023V25.1771C11.3628 24.8756 11.7312 24.2969 11.7312 23.6332V22.6651H13.6674V23.6332C13.6674 24.2969 14.0359 24.8756 14.5786 25.1771V41.0023H10.8201ZM19.1344 22.6651V23.6332C19.1344 23.6647 19.1089 23.6902 19.0775 23.6902H15.4328C15.4014 23.6902 15.3759 23.6647 15.3759 23.6332V22.6651H19.1344ZM28.246 22.6651V23.6332C28.246 23.6647 28.2205 23.6902 28.1891 23.6902H24.5444C24.513 23.6902 24.4875 23.6647 24.4875 23.6332V22.6651H28.246ZM37.3577 22.6651V23.6332C37.3577 23.6647 37.3321 23.6902 37.3007 23.6902H33.6561C33.6246 23.6902 33.5991 23.6647 33.5991 23.6332V22.6651H37.3577ZM1.70843 15.9285L26.3668 1.83801L51.0251 15.9285V17.3121H1.70843V15.9285ZM3.53075 19.0205H49.2028V20.9567H3.53075V19.0205ZM10.0228 22.6651V23.6332C10.0228 23.6647 9.99727 23.6902 9.96584 23.6902H6.32119C6.28975 23.6902 6.26424 23.6647 6.26424 23.6332V22.6651H10.0228ZM7.1754 25.3986H9.11162V41.0023H7.1754V25.3986ZM51.0251 48.2916H1.70843V46.3554H51.0251V48.2916ZM49.2028 44.6469H3.53075V42.7107H49.2028V44.6469ZM43.6219 41.0023V25.3986H45.5581V41.0023H43.6219Z" fill="#FBB017"/>
</svg>
