<svg width="72" height="70" viewBox="0 0 72 70" fill="none" xmlns="http://www.w3.org/2000/svg">
<path d="M71.8987 63.0345C71.6242 61.0939 64.6992 16.4197 63.9519 10.9037C63.5784 8.123 61.19 5.99605 58.3348 5.99605H51.5144V2.74662C51.5144 1.23218 50.2822 0 48.7678 0H48.2044C46.6898 0 45.4577 1.23218 45.4577 2.74662V5.99591H34.0485V2.74662C34.0485 1.23218 32.8163 0 31.3019 0H30.7384C29.2239 0 27.9918 1.23218 27.9918 2.74662V5.99591H16.5826V2.74662C16.5826 1.23218 15.3504 0 13.8359 0H13.2725C11.7579 0 10.5259 1.23218 10.5259 2.74662V5.99591H5.66961C2.54339 5.99591 0 8.5393 0 11.6654C0 13.2752 0 63.5315 0 64.3304C0 67.4566 2.54339 70 5.66961 70C6.6077 70 65.3159 70 66.4156 70C68.7782 70 70.9159 68.5114 71.7319 66.3035C71.843 66.0095 72.1829 64.9069 71.8987 63.0345ZM47.5706 2.74662C47.5706 2.39712 47.8549 2.11274 48.2045 2.11274H48.7679C49.1174 2.11274 49.4018 2.39712 49.4018 2.74662V12.137C49.4018 12.4865 49.1174 12.7708 48.7679 12.7708H48.2045C47.8549 12.7708 47.5706 12.4865 47.5706 12.137V2.74662ZM46.0946 13.8934C46.1432 13.9518 46.1949 14.0074 46.248 14.0614C46.2567 14.0702 46.2653 14.0792 46.2742 14.088C46.3283 14.1417 46.3849 14.1927 46.4434 14.2417C46.4541 14.2507 46.4648 14.2594 46.4756 14.2683C46.5349 14.3166 46.5961 14.3626 46.6595 14.4058C46.6692 14.4124 46.6792 14.4188 46.6891 14.4252C46.7556 14.4692 46.8235 14.5114 46.8939 14.5497C46.8975 14.5517 46.9013 14.5533 46.905 14.5555C46.975 14.5932 47.0469 14.6277 47.1204 14.6594C47.1283 14.6628 47.1359 14.6664 47.1438 14.6698C47.2166 14.7003 47.2913 14.7273 47.367 14.7517C47.3796 14.7557 47.3922 14.76 47.405 14.7638C47.4796 14.7865 47.5557 14.8059 47.6329 14.8225C47.6466 14.8255 47.6602 14.8282 47.674 14.8308C47.7526 14.8463 47.8322 14.8588 47.9131 14.8674C47.9238 14.8685 47.9345 14.8691 47.9452 14.8702C48.0307 14.8782 48.1169 14.8833 48.2044 14.8833H48.7678C48.8553 14.8833 48.9415 14.8782 49.027 14.8702C49.0377 14.8692 49.0485 14.8687 49.0591 14.8674C49.1399 14.8588 49.2195 14.8463 49.2982 14.8308C49.3119 14.8282 49.3256 14.8255 49.3392 14.8225C49.4166 14.8061 49.4927 14.7867 49.5672 14.7638C49.5799 14.7598 49.5925 14.7556 49.6052 14.7517C49.681 14.7273 49.7557 14.7003 49.8284 14.6698C49.8363 14.6664 49.8438 14.6628 49.8517 14.6594C49.9253 14.6277 49.9973 14.5932 50.0672 14.5555C50.0708 14.5535 50.0746 14.5518 50.0783 14.5497C50.1488 14.5114 50.2166 14.4692 50.2831 14.4252C50.2929 14.4188 50.3029 14.4124 50.3126 14.4058C50.376 14.3626 50.4371 14.3165 50.4966 14.2683C50.5074 14.2594 50.5181 14.2507 50.5288 14.2417C50.5873 14.1926 50.6437 14.1417 50.698 14.088C50.7068 14.0792 50.7154 14.0702 50.7241 14.0614C50.777 14.0074 50.8286 13.9518 50.8773 13.8934C50.8791 13.9316 50.8801 13.9697 50.8801 14.0079C50.8801 15.3283 49.806 16.4024 48.4855 16.4024C47.1652 16.4024 46.0911 15.3283 46.0911 14.0079C46.0918 13.9697 46.0926 13.9316 46.0946 13.8934ZM30.1048 2.74662C30.1048 2.39712 30.3891 2.11274 30.7387 2.11274H31.3021C31.6516 2.11274 31.936 2.39712 31.936 2.74662V12.137C31.936 12.4865 31.6516 12.7708 31.3021 12.7708H30.7387C30.3891 12.7708 30.1048 12.4865 30.1048 12.137V2.74662ZM28.6285 13.8934C28.6772 13.9518 28.7288 14.0074 28.782 14.0614C28.7907 14.0702 28.7992 14.0792 28.8081 14.088C28.8623 14.1417 28.9188 14.1927 28.9773 14.2417C28.988 14.2507 28.9987 14.2594 29.0095 14.2683C29.0689 14.3166 29.13 14.3626 29.1935 14.4058C29.2032 14.4124 29.2132 14.4188 29.223 14.4252C29.2895 14.4692 29.3575 14.5114 29.4278 14.5497C29.4314 14.5517 29.4352 14.5533 29.4389 14.5555C29.5089 14.5932 29.5809 14.6277 29.6544 14.6594C29.6622 14.6628 29.6698 14.6664 29.6777 14.6698C29.7506 14.7003 29.8252 14.7273 29.9009 14.7517C29.9136 14.7557 29.9261 14.76 29.9389 14.7638C30.0136 14.7865 30.0897 14.8059 30.1669 14.8225C30.1805 14.8255 30.1941 14.8282 30.2079 14.8308C30.2866 14.8463 30.3662 14.8588 30.447 14.8674C30.4577 14.8685 30.4684 14.8691 30.4792 14.8702C30.5646 14.8782 30.651 14.8833 30.7384 14.8833H31.3019C31.3893 14.8833 31.4756 14.8782 31.5611 14.8702C31.5718 14.8692 31.5826 14.8687 31.5933 14.8674C31.6741 14.8588 31.7537 14.8463 31.8324 14.8308C31.8461 14.8282 31.8598 14.8255 31.8734 14.8225C31.9508 14.8061 32.0269 14.7867 32.1014 14.7638C32.1141 14.7598 32.1267 14.7556 32.1394 14.7517C32.2152 14.7273 32.2899 14.7003 32.3626 14.6698C32.3705 14.6664 32.3781 14.6628 32.3859 14.6594C32.4595 14.6277 32.5315 14.5932 32.6014 14.5555C32.6051 14.5535 32.6089 14.5518 32.6125 14.5497C32.6828 14.5114 32.7508 14.4692 32.8173 14.4252C32.8271 14.4188 32.8371 14.4124 32.8468 14.4058C32.9103 14.3626 32.9713 14.3165 33.0308 14.2683C33.0416 14.2594 33.0523 14.2507 33.063 14.2417C33.1215 14.1926 33.1779 14.1417 33.2322 14.088C33.241 14.0792 33.2496 14.0702 33.2583 14.0614C33.3111 14.0074 33.3627 13.9518 33.4114 13.8934C33.4132 13.9316 33.4142 13.9697 33.4142 14.0079C33.4142 15.3283 32.3401 16.4024 31.0196 16.4024C29.6991 16.4024 28.625 15.3283 28.625 14.0079C28.6258 13.9697 28.6267 13.9316 28.6285 13.8934ZM12.6388 2.74662C12.6388 2.39712 12.9232 2.11274 13.2727 2.11274H13.8361C14.1856 2.11274 14.4699 2.39712 14.4699 2.74662C14.4699 4.5117 14.4699 10.3266 14.4699 12.137C14.4699 12.4865 14.1856 12.7708 13.8361 12.7708H13.2725C12.923 12.7708 12.6386 12.4865 12.6386 12.137C12.6388 11.2879 12.6388 3.6518 12.6388 2.74662ZM11.9619 14.55C11.9655 14.5519 11.9693 14.5536 11.973 14.5557C12.043 14.5934 12.115 14.628 12.1884 14.6597C12.1963 14.6631 12.2039 14.6667 12.2118 14.6701C12.2846 14.7006 12.3593 14.7276 12.435 14.7519C12.4476 14.756 12.4602 14.7602 12.4728 14.764C12.5475 14.7868 12.6236 14.8062 12.7008 14.8228C12.7144 14.8258 12.7281 14.8284 12.7419 14.8311C12.8205 14.8466 12.9001 14.8591 12.981 14.8677C12.9916 14.8688 13.0023 14.8694 13.0132 14.8705C13.0985 14.8785 13.1849 14.8836 13.2724 14.8836H13.8358C13.9233 14.8836 14.0095 14.8785 14.095 14.8705C14.1057 14.8695 14.1165 14.869 14.1272 14.8677C14.2081 14.8591 14.2877 14.8466 14.3663 14.8311C14.3801 14.8284 14.3937 14.8258 14.4074 14.8228C14.4847 14.8064 14.5608 14.787 14.6353 14.764C14.648 14.7601 14.6607 14.7559 14.6733 14.7519C14.7491 14.7276 14.8238 14.7006 14.8965 14.6701C14.9044 14.6667 14.912 14.6631 14.9199 14.6597C14.9934 14.628 15.0654 14.5934 15.1353 14.5557C15.139 14.5538 15.1428 14.5521 15.1464 14.55C15.2168 14.5117 15.2848 14.4695 15.3512 14.4255C15.3611 14.419 15.371 14.4127 15.3808 14.4061C15.4442 14.3629 15.5052 14.3168 15.5647 14.2685C15.5755 14.2597 15.5862 14.251 15.5969 14.242C15.6554 14.1929 15.7118 14.142 15.7661 14.0882C15.775 14.0795 15.7836 14.0705 15.7923 14.0617C15.8452 14.0075 15.8968 13.952 15.9454 13.8936C15.9473 13.9317 15.9482 13.9698 15.9482 14.0081C15.9482 15.3284 14.8742 16.4025 13.5537 16.4025C12.1858 16.4025 11.0955 15.2535 11.162 13.8934C11.3779 14.1517 11.6579 14.3842 11.9619 14.55ZM2.11288 11.6654C2.11288 9.70425 3.70848 8.10865 5.66975 8.10865H10.5262V10.6717C7.4849 13.4352 9.44659 18.5153 13.5545 18.5153C16.0398 18.5153 18.0618 16.4932 18.0618 14.0079C18.0618 12.7303 17.5173 11.5207 16.5828 10.6716V8.10879H27.9921V10.6719C27.0577 11.5209 26.5131 12.7305 26.5131 14.0081C26.5131 16.4935 28.5351 18.5154 31.0204 18.5154C33.5057 18.5154 35.5278 16.4934 35.5278 14.0081C35.5278 12.7305 34.9832 11.5208 34.0488 10.6717V8.10879H45.458V10.6719C44.5236 11.5209 43.979 12.7305 43.979 14.0081C43.979 16.4935 46.0011 18.5154 48.4864 18.5154C50.9718 18.5154 52.9937 16.4934 52.9937 14.0081C52.9937 12.7305 52.4491 11.5208 51.5147 10.6717V8.10879H58.335C60.2963 8.10879 61.8921 9.70439 61.8921 11.6655V22.4593H2.11288V11.6654ZM69.7529 65.5636C69.2391 66.9535 67.8979 67.8874 66.4154 67.8874H62.7455C63.532 66.914 64.0044 65.6766 64.0044 64.3305V50.3389C64.0044 49.7555 63.5314 49.2825 62.948 49.2825C62.3646 49.2825 61.8916 49.7555 61.8916 50.3389V64.3305C61.8916 66.2918 60.2959 67.8874 58.3346 67.8874H5.66961C3.70834 67.8874 2.11274 66.2918 2.11274 64.3305V28.5161H28.5624C29.1458 28.5161 29.6188 28.0431 29.6188 27.4598C29.6188 26.8764 29.1458 26.4034 28.5624 26.4034H2.11288V24.5722H61.8919V26.4034H33.4782C32.8948 26.4034 32.4218 26.8764 32.4218 27.4598C32.4218 28.0431 32.8948 28.5161 33.4782 28.5161H61.8919V45.4091C61.8919 45.9925 62.3649 46.4655 62.9483 46.4655C63.5317 46.4655 64.0047 45.9925 64.0047 45.4091C64.0047 44.582 64.0047 26.3454 64.0047 25.5162L69.8055 63.3228C69.8062 63.3282 69.807 63.3334 69.8079 63.3387C70.0312 64.7956 69.7585 65.5486 69.7529 65.5636Z" fill="#fdaf17"/>
<path d="M24.0763 33.9323H20.5983C20.0149 33.9323 19.542 34.4053 19.542 34.9887C19.542 35.5721 20.0149 36.0451 20.5983 36.0451H24.0763C24.6598 36.0451 25.1327 35.5721 25.1327 34.9887C25.1328 34.4053 24.6598 33.9323 24.0763 33.9323Z" fill="#fdaf17"/>
<path d="M33.7454 33.9323H30.267C29.6836 33.9323 29.2106 34.4053 29.2106 34.9887C29.2106 35.5721 29.6836 36.0451 30.267 36.0451H33.7454C34.3289 36.0451 34.8018 35.5721 34.8018 34.9887C34.8019 34.4053 34.3291 33.9323 33.7454 33.9323Z" fill="#fdaf17"/>
<path d="M43.4146 33.9323H39.9361C39.3527 33.9323 38.8797 34.4053 38.8797 34.9887C38.8797 35.5721 39.3527 36.0451 39.9361 36.0451H43.4146C43.998 36.0451 44.471 35.5721 44.471 34.9887C44.4711 34.4053 43.998 33.9323 43.4146 33.9323Z" fill="#fdaf17"/>
<path d="M53.0833 33.9323H49.6049C49.0215 33.9323 48.5485 34.4053 48.5485 34.9887C48.5485 35.5721 49.0215 36.0451 49.6049 36.0451H53.0833C53.6668 36.0451 54.1397 35.5721 54.1397 34.9887C54.1398 34.4053 53.667 33.9323 53.0833 33.9323Z" fill="#fdaf17"/>
<path d="M14.4075 42.4435H10.9291C10.3457 42.4435 9.87274 42.9165 9.87274 43.4999C9.87274 44.0832 10.3457 44.5562 10.9291 44.5562H14.4075C14.991 44.5562 15.4639 44.0832 15.4639 43.4999C15.464 42.9163 14.9912 42.4435 14.4075 42.4435Z" fill="#fdaf17"/>
<path d="M24.0763 42.4435H20.5983C20.0149 42.4435 19.542 42.9165 19.542 43.4999C19.542 44.0832 20.0149 44.5562 20.5983 44.5562H24.0763C24.6598 44.5562 25.1327 44.0832 25.1327 43.4999C25.1328 42.9163 24.6598 42.4435 24.0763 42.4435Z" fill="#fdaf17"/>
<path d="M33.7454 42.4435H30.267C29.6836 42.4435 29.2106 42.9165 29.2106 43.4999C29.2106 44.0832 29.6836 44.5562 30.267 44.5562H33.7454C34.3289 44.5562 34.8018 44.0832 34.8018 43.4999C34.8019 42.9163 34.3291 42.4435 33.7454 42.4435Z" fill="#fdaf17"/>
<path d="M43.4146 42.4435H39.9361C39.3527 42.4435 38.8797 42.9165 38.8797 43.4999C38.8797 44.0832 39.3527 44.5562 39.9361 44.5562H43.4146C43.998 44.5562 44.471 44.0832 44.471 43.4999C44.4711 42.9163 43.998 42.4435 43.4146 42.4435Z" fill="#fdaf17"/>
<path d="M53.0833 42.4435H49.6049C49.0215 42.4435 48.5485 42.9165 48.5485 43.4999C48.5485 44.0832 49.0215 44.5562 49.6049 44.5562H53.0833C53.6668 44.5562 54.1397 44.0832 54.1397 43.4999C54.1398 42.9163 53.667 42.4435 53.0833 42.4435Z" fill="#fdaf17"/>
<path d="M14.4075 50.9548H10.9291C10.3457 50.9548 9.87274 51.4278 9.87274 52.0112C9.87274 52.5946 10.3457 53.0675 10.9291 53.0675H14.4075C14.991 53.0675 15.4639 52.5946 15.4639 52.0112C15.464 51.4278 14.9912 50.9548 14.4075 50.9548Z" fill="#fdaf17"/>
<path d="M24.0763 50.9548H20.5983C20.0149 50.9548 19.542 51.4278 19.542 52.0112C19.542 52.5946 20.0149 53.0675 20.5983 53.0675H24.0763C24.6598 53.0675 25.1327 52.5946 25.1327 52.0112C25.1328 51.4278 24.6598 50.9548 24.0763 50.9548Z" fill="#fdaf17"/>
<path d="M33.7454 50.9548H30.267C29.6836 50.9548 29.2106 51.4278 29.2106 52.0112C29.2106 52.5946 29.6836 53.0675 30.267 53.0675H33.7454C34.3289 53.0675 34.8018 52.5946 34.8018 52.0112C34.8019 51.4278 34.3291 50.9548 33.7454 50.9548Z" fill="#fdaf17"/>
<path d="M43.4146 50.9548H39.9361C39.3527 50.9548 38.8797 51.4278 38.8797 52.0112C38.8797 52.5946 39.3527 53.0675 39.9361 53.0675H43.4146C43.998 53.0675 44.471 52.5946 44.471 52.0112C44.4711 51.4278 43.998 50.9548 43.4146 50.9548Z" fill="#fdaf17"/>
<path d="M53.0833 50.9548H49.6049C49.0215 50.9548 48.5485 51.4278 48.5485 52.0112C48.5485 52.5946 49.0215 53.0675 49.6049 53.0675H53.0833C53.6668 53.0675 54.1397 52.5946 54.1397 52.0112C54.1398 51.4278 53.667 50.9548 53.0833 50.9548Z" fill="#fdaf17"/>
<path d="M14.4075 59.4662H10.9291C10.3457 59.4662 9.87274 59.9392 9.87274 60.5226C9.87274 61.106 10.3457 61.579 10.9291 61.579H14.4075C14.991 61.579 15.4639 61.106 15.4639 60.5226C15.464 59.9392 14.9912 59.4662 14.4075 59.4662Z" fill="#fdaf17"/>
<path d="M24.0763 59.4662H20.5983C20.0149 59.4662 19.542 59.9392 19.542 60.5226C19.542 61.106 20.0149 61.579 20.5983 61.579H24.0763C24.6598 61.579 25.1327 61.106 25.1327 60.5226C25.1328 59.9392 24.6598 59.4662 24.0763 59.4662Z" fill="#fdaf17"/>
<path d="M33.7454 59.4662H30.267C29.6836 59.4662 29.2106 59.9392 29.2106 60.5226C29.2106 61.106 29.6836 61.579 30.267 61.579H33.7454C34.3289 61.579 34.8018 61.106 34.8018 60.5226C34.8019 59.9392 34.3291 59.4662 33.7454 59.4662Z" fill="#fdaf17"/>
<path d="M43.4146 59.4662H39.9361C39.3527 59.4662 38.8797 59.9392 38.8797 60.5226C38.8797 61.106 39.3527 61.579 39.9361 61.579H43.4146C43.998 61.579 44.471 61.106 44.471 60.5226C44.4711 59.9392 43.998 59.4662 43.4146 59.4662Z" fill="#fdaf17"/>
</svg>
