<svg width="18" height="18" viewBox="0 0 18 18" fill="none" xmlns="http://www.w3.org/2000/svg">
<path d="M17.0757 11.6148L13.0506 9.88976C12.8404 9.79929 12.6109 9.76286 12.3831 9.78379C12.1553 9.80472 11.9363 9.88235 11.7461 10.0096L9.59401 11.4442C8.27869 10.8045 7.21411 9.74457 6.56857 8.43209L6.56874 8.43192L7.99829 6.24756C8.12272 6.05793 8.19822 5.84041 8.21802 5.61446C8.23782 5.38851 8.20131 5.16118 8.11175 4.95279L6.38512 0.924225C6.26758 0.650765 6.06463 0.422734 5.80665 0.274273C5.54867 0.125813 5.24955 0.0649105 4.95406 0.100686C3.79293 0.249977 2.72586 0.816879 1.95219 1.69549C1.17853 2.5741 0.751187 3.70431 0.75 4.875C0.75 11.6986 6.30136 17.25 13.125 17.25C14.2957 17.2488 15.4259 16.8215 16.3045 16.0478C17.1831 15.2741 17.75 14.207 17.8993 13.0459C17.935 12.7504 17.874 12.4513 17.7256 12.1933C17.5771 11.9354 17.3491 11.7324 17.0757 11.6148Z" fill="#fdaf17"/>
</svg>
