<svg width="24" height="18" viewBox="0 0 24 18" fill="none" xmlns="http://www.w3.org/2000/svg">
<path d="M22.5 7.5H21.4874L18.8833 1.64072C18.7653 1.3757 18.573 1.15055 18.3298 0.992477C18.0865 0.834405 17.8027 0.750186 17.5126 0.75H6.48743C6.19731 0.750186 5.91346 0.834416 5.6702 0.992506C5.42694 1.1506 5.23469 1.37577 5.1167 1.64081L2.51259 7.5H1.5C1.30109 7.5 1.11032 7.57902 0.96967 7.71967C0.829018 7.86032 0.75 8.05109 0.75 8.25C0.75 8.44891 0.829018 8.63968 0.96967 8.78033C1.11032 8.92098 1.30109 9 1.5 9H2.25V16.5C2.25045 16.8977 2.40864 17.279 2.68984 17.5602C2.97105 17.8414 3.35231 17.9995 3.75 18H6C6.39769 17.9995 6.77895 17.8414 7.06016 17.5602C7.34136 17.279 7.49955 16.8977 7.5 16.5V15H16.5V16.5C16.5005 16.8977 16.6586 17.279 16.9398 17.5602C17.221 17.8414 17.6023 17.9995 18 18H20.25C20.6477 17.9995 21.029 17.8414 21.3102 17.5602C21.5914 17.279 21.7495 16.8977 21.75 16.5V9H22.5C22.6989 9 22.8897 8.92098 23.0303 8.78033C23.171 8.63968 23.25 8.44891 23.25 8.25C23.25 8.05109 23.171 7.86032 23.0303 7.71967C22.8897 7.57902 22.6989 7.5 22.5 7.5ZM7.5 12H6C5.80109 12 5.61032 11.921 5.46967 11.7803C5.32902 11.6397 5.25 11.4489 5.25 11.25C5.25 11.0511 5.32902 10.8603 5.46967 10.7197C5.61032 10.579 5.80109 10.5 6 10.5H7.5C7.69891 10.5 7.88968 10.579 8.03033 10.7197C8.17098 10.8603 8.25 11.0511 8.25 11.25C8.25 11.4489 8.17098 11.6397 8.03033 11.7803C7.88968 11.921 7.69891 12 7.5 12ZM16.5 12C16.3011 12 16.1103 11.921 15.9697 11.7803C15.829 11.6397 15.75 11.4489 15.75 11.25C15.75 11.0511 15.829 10.8603 15.9697 10.7197C16.1103 10.579 16.3011 10.5 16.5 10.5H18C18.1989 10.5 18.3897 10.579 18.5303 10.7197C18.671 10.8603 18.75 11.0511 18.75 11.25C18.75 11.4489 18.671 11.6397 18.5303 11.7803C18.3897 11.921 18.1989 12 18 12H16.5Z" fill="#FDB017"/>
</svg>
