<svg width="25" height="24" viewBox="0 0 25 24" fill="none" xmlns="http://www.w3.org/2000/svg">
<path d="M12.1622 2.2267C6.84137 2.2267 2.51245 6.55562 2.51245 11.8764C2.51245 17.1972 6.84137 21.5261 12.1622 21.5261C17.483 21.5261 21.8119 17.1972 21.8119 11.8764C21.8119 6.55562 17.483 2.2267 12.1622 2.2267ZM13.6467 16.3301H10.6776C10.4807 16.3301 10.2919 16.2519 10.1527 16.1127C10.0135 15.9735 9.93531 15.7847 9.93531 15.5878C9.93531 15.391 10.0135 15.2022 10.1527 15.063C10.2919 14.9238 10.4807 14.8456 10.6776 14.8456H13.6467C13.8436 14.8456 14.0324 14.9238 14.1716 15.063C14.3108 15.2022 14.389 15.391 14.389 15.5878C14.389 15.7847 14.3108 15.9735 14.1716 16.1127C14.0324 16.2519 13.8436 16.3301 13.6467 16.3301ZM15.8736 13.361H8.45074C8.25387 13.361 8.06507 13.2828 7.92586 13.1436C7.78665 13.0044 7.70845 12.8156 7.70845 12.6187C7.70845 12.4218 7.78665 12.233 7.92586 12.0938C8.06507 11.9546 8.25387 11.8764 8.45074 11.8764H15.8736C16.0705 11.8764 16.2593 11.9546 16.3985 12.0938C16.5377 12.233 16.6159 12.4218 16.6159 12.6187C16.6159 12.8156 16.5377 13.0044 16.3985 13.1436C16.2593 13.2828 16.0705 13.361 15.8736 13.361ZM17.3582 10.3918H6.96616C6.7693 10.3918 6.58049 10.3136 6.44129 10.1744C6.30208 10.0352 6.22388 9.84642 6.22388 9.64955C6.22388 9.45269 6.30208 9.26389 6.44129 9.12468C6.58049 8.98547 6.7693 8.90727 6.96616 8.90727H17.3582C17.555 8.90727 17.7438 8.98547 17.883 9.12468C18.0222 9.26389 18.1004 9.45269 18.1004 9.64955C18.1004 9.84642 18.0222 10.0352 17.883 10.1744C17.7438 10.3136 17.555 10.3918 17.3582 10.3918Z" fill="#FFFFFF"/>
</svg>
