<svg width="25" height="22" viewBox="0 0 25 22" fill="none" xmlns="http://www.w3.org/2000/svg">
<path d="M21.8559 2.58965L21.8566 2.58974C23.1585 2.74427 24.0942 3.91708 23.9555 5.22083L23.9554 5.22186L22.6807 16.4722L22.6807 16.4725C22.6092 17.0935 22.3029 17.6638 21.8247 18.0664L21.8139 18.0755L21.8135 18.075C21.5141 18.2825 21.1788 18.432 20.8251 18.5161V18.8384C20.8251 20.1545 19.6348 21.1498 18.3474 21.1498H3.13542C3.10588 21.1502 3.07618 21.15 3.04644 21.1492C3.04643 21.1492 3.04642 21.1492 3.04642 21.1492L3.0504 20.9993C1.88767 20.9686 0.970039 20.0011 1.00075 18.8384L21.8559 2.58965ZM21.8559 2.58965L6.72809 0.871892C6.10025 0.783247 5.46434 0.966323 4.97977 1.37522C4.49659 1.75098 4.1868 2.30701 4.12159 2.91566L3.86072 5.05497H3.13447C1.81813 5.05497 0.850749 6.21779 0.850749 7.50491V18.8365L21.8559 2.58965ZM19.4167 18.6884H19.4167V18.8384C19.4167 19.0898 19.2916 19.313 19.0907 19.4774C18.8888 19.6426 18.6175 19.7414 18.3474 19.7414H3.13447V19.7413L3.13006 19.7415C2.66217 19.7552 2.27173 19.387 2.25799 18.9191L2.25798 18.919C2.25726 18.895 2.25758 18.8709 2.25893 18.8468L2.25916 18.8468V18.8384V16.8637L6.49316 13.7497L6.49318 13.7497L6.49563 13.7479C6.9534 13.3964 7.59819 13.4276 8.01994 13.8216L8.01989 13.8217L8.02319 13.8246L11.0436 16.4847L11.0436 16.4848L11.0463 16.4871C11.5314 16.8944 12.142 17.122 12.7754 17.1318L12.7759 17.1318C13.2715 17.1379 13.759 17.006 14.184 16.7508C14.1844 16.7506 14.1847 16.7504 14.1851 16.7501L19.4167 13.7227V18.6884ZM19.4167 7.5099V12.074L13.4503 15.5498L13.4494 15.5504C12.9861 15.8248 12.3998 15.7754 11.989 15.4274L8.94198 12.7405L8.94199 12.7405L8.94053 12.7392C8.01396 11.943 6.65977 11.8941 5.67815 12.6212C5.67797 12.6213 5.67778 12.6215 5.6776 12.6216L2.25916 15.1077V7.50491C2.25916 6.94752 2.63527 6.46338 3.13447 6.46338H18.3442C18.9159 6.48859 19.3775 6.93919 19.4167 7.5099ZM20.9292 16.9589C20.9073 16.9808 20.8716 17.0021 20.825 17.0253V7.50491H20.8251L20.8249 7.49972C20.7784 6.15787 19.6931 5.0854 18.3508 5.05501V5.05497H18.3474H5.27021L5.49963 3.06661C5.54766 2.82451 5.67397 2.60499 5.8591 2.44178C6.07155 2.29719 6.32717 2.22972 6.5835 2.25066L21.6832 3.99612L21.6832 3.99615L21.6863 3.99644C22.2131 4.04647 22.5997 4.51421 22.5497 5.04117L22.5489 5.04914L21.2465 16.2995L21.2455 16.3087L21.2455 16.3179C21.2474 16.5632 21.1356 16.7955 20.9426 16.947L20.9356 16.9525L20.9292 16.9589ZM12.5559 7.90912C11.1876 7.90912 10.0783 9.01839 10.0783 10.3868C10.0783 11.7552 11.1875 12.8645 12.5559 12.8645C13.9243 12.8645 15.0336 11.7552 15.0336 10.3868C15.0336 9.01839 13.9244 7.90912 12.5559 7.90912ZM12.5559 11.456C11.9654 11.456 11.4867 10.9773 11.4867 10.3867C11.4867 9.79621 11.9654 9.31748 12.5559 9.31748C13.1465 9.31748 13.6252 9.79621 13.6252 10.3867C13.6252 10.9773 13.1465 11.456 12.5559 11.456Z" fill="#fff" stroke="#fff" stroke-width="0.3"/>
</svg>
