<svg width="79" height="70" viewBox="0 0 79 70" fill="none" xmlns="http://www.w3.org/2000/svg">
<path d="M77.8666 32.3871L63.3896 20.0242C63.4066 19.9396 63.4235 19.855 63.4404 19.7536V3.58541C63.4235 2.62141 62.6624 1.84344 61.6984 1.80962H53.6143C52.6842 1.80962 51.9231 2.63832 51.9231 3.58541V10.2827L40.3382 0.405895C39.7124 -0.135298 38.7822 -0.135298 38.1396 0.405895L0.611194 32.3701C-0.116035 32.9621 -0.200596 34.0275 0.391334 34.7548C0.983265 35.482 2.04874 35.5666 2.77597 34.9746C2.79288 34.9577 2.79288 34.9577 2.80979 34.9408L39.2389 3.92365L52.2783 15.035L75.6849 34.9577C76.3952 35.5666 77.4607 35.482 78.0695 34.7717C78.6614 34.0614 78.5769 32.9959 77.8666 32.3871ZM60.041 17.166L55.3056 13.1747V5.20899H60.041V17.166Z" fill="#fdaf17"/>
<path d="M70.4082 35.8033L40.3382 10.1136C39.7124 9.57236 38.7822 9.57236 38.1396 10.1136L8.06952 35.8033C7.3592 36.4122 7.27464 37.4776 7.88348 38.188C8.47541 38.8983 9.52397 38.9828 10.2174 38.3909L10.2343 38.374L12.3483 36.5475V68.258C12.3652 69.2051 13.1432 69.9831 14.0903 70H64.3706C65.3176 69.9831 66.0956 69.222 66.1125 68.258V36.5475L68.2266 38.374C68.531 38.6277 68.903 38.7799 69.3089 38.7799C69.7994 38.7799 70.2729 38.56 70.5943 38.188C71.22 37.4607 71.1186 36.3953 70.4082 35.8033ZM46.0038 66.6006H32.474V48.3353H46.0038V66.6006ZM49.3863 66.6006V46.6949C49.3863 45.7647 48.6929 44.9529 47.7627 44.9529H30.7151C29.7849 44.9529 29.0915 45.7647 29.0915 46.6949V66.6006H15.7308V33.6555L39.2389 13.6313L62.747 33.6555V66.6006H49.3863Z" fill="#fdaf17"/>
</svg>
