<svg width="24" height="21" viewBox="0 0 24 21" fill="none" xmlns="http://www.w3.org/2000/svg">
<path d="M8.24998 4.5V1.5C8.24998 1.30109 8.329 1.11032 8.46965 0.96967C8.61031 0.829018 8.80107 0.75 8.99998 0.75C9.1989 0.75 9.38966 0.829018 9.53031 0.96967C9.67097 1.11032 9.74998 1.30109 9.74998 1.5V4.5C9.74998 4.69891 9.67097 4.88968 9.53031 5.03033C9.38966 5.17098 9.1989 5.25 8.99998 5.25C8.80107 5.25 8.61031 5.17098 8.46965 5.03033C8.329 4.88968 8.24998 4.69891 8.24998 4.5ZM12 5.25C12.1989 5.24999 12.3897 5.17097 12.5303 5.03032C12.671 4.88967 12.75 4.69891 12.75 4.5V1.5C12.75 1.30109 12.671 1.11032 12.5303 0.96967C12.3897 0.829018 12.1989 0.75 12 0.75C11.8011 0.75 11.6103 0.829018 11.4697 0.96967C11.329 1.11032 11.25 1.30109 11.25 1.5V4.5C11.25 4.69891 11.329 4.88967 11.4697 5.03032C11.6103 5.17097 11.8011 5.24999 12 5.25ZM15 5.25C15.1989 5.24999 15.3897 5.17097 15.5303 5.03032C15.671 4.88967 15.75 4.69891 15.75 4.5V1.5C15.75 1.30109 15.671 1.11032 15.5303 0.96967C15.3897 0.829018 15.1989 0.75 15 0.75C14.8011 0.75 14.6103 0.829018 14.4697 0.96967C14.329 1.11032 14.25 1.30109 14.25 1.5V4.5C14.25 4.69891 14.329 4.88967 14.4697 5.03032C14.6103 5.17097 14.8011 5.24999 15 5.25ZM23.85 8.55002C23.7909 8.47122 23.7169 8.40483 23.6321 8.35464C23.5474 8.30445 23.4536 8.27145 23.3561 8.25752C23.2586 8.24359 23.1593 8.249 23.0639 8.27345C22.9684 8.2979 22.8788 8.34091 22.8 8.40001L21 9.75V8.25C20.9995 7.85231 20.8413 7.47105 20.5601 7.18984C20.2789 6.90864 19.8977 6.75045 19.5 6.75H4.49998C4.1023 6.75045 3.72103 6.90864 3.43983 7.18984C3.15862 7.47105 3.00044 7.85231 2.99998 8.25V9.75L1.19997 8.40001C1.04084 8.28067 0.84082 8.22943 0.643912 8.25756C0.447004 8.28569 0.269336 8.39089 0.149994 8.55002C0.0306512 8.70915 -0.0205901 8.90916 0.00754208 9.10607C0.0356743 9.30298 0.140876 9.48065 0.300003 9.59999L2.99998 11.625V17.25C3.00089 18.0454 3.31726 18.8079 3.87967 19.3703C4.44208 19.9327 5.20461 20.2491 5.99998 20.25H18C18.7954 20.2491 19.5579 19.9327 20.1203 19.3703C20.6827 18.8079 20.9991 18.0454 21 17.25V11.625L23.7 9.59999C23.7788 9.5409 23.8451 9.46687 23.8953 9.38212C23.9455 9.29738 23.9785 9.20358 23.9924 9.10608C24.0064 9.00857 24.001 8.90928 23.9765 8.81388C23.9521 8.71847 23.9091 8.62881 23.85 8.55002Z" fill="#FDB017"/>
</svg>
