<svg width="54" height="60" viewBox="0 0 54 60" fill="none" xmlns="http://www.w3.org/2000/svg">
<path d="M26.0035 8.625C19.3603 8.90625 13.5712 12.9375 11.0088 19.125C8.4464 25.2188 9.58524 32.0625 14.0457 36.9375C16.2285 39.375 17.4622 42.375 17.4622 45.4688C16.9877 45.9375 16.703 46.5 16.703 47.1562V49.5938C16.703 50.9063 17.7469 51.9375 19.0756 51.9375H19.3603V52.5938C19.3603 56.625 22.6819 60 26.8576 60C31.0334 60 34.355 56.7188 34.355 52.5938V51.9375H34.6397C35.9684 51.9375 37.0123 50.9063 37.0123 49.5938V47.1562C37.0123 46.4062 36.7276 45.8438 36.1582 45.375C36.1582 42.2812 37.297 39.375 39.4798 37.125C44.225 31.9687 45.3638 24.8438 42.3269 18.4688C39.3849 12 33.1213 8.25 26.0035 8.625ZM32.4569 52.5938C32.4569 55.5938 29.9895 58.125 26.8576 58.125C23.7258 58.125 21.2583 55.6875 21.2583 52.5938V51.9375H32.4569V52.5938ZM35.1142 49.5938C35.1142 49.875 34.9244 50.0625 34.6397 50.0625C27.6169 50.0625 23.6309 50.0625 19.0756 50.0625C18.7909 50.0625 18.6011 49.875 18.6011 49.5938V47.1562C18.6011 46.875 18.7909 46.6875 19.0756 46.6875H34.6397C34.9244 46.6875 35.1142 46.875 35.1142 47.1562V49.5938ZM38.0562 35.8125C35.7786 38.25 34.4499 41.4375 34.2601 44.8125H27.7118V33.1875L31.2232 29.7188C31.6028 29.3438 31.6028 28.7812 31.2232 28.4062C30.8436 28.0312 30.2742 28.0312 29.8946 28.4062L26.7627 31.5L23.8207 28.5938C23.4411 28.2188 22.8717 28.2188 22.4921 28.5938C22.1125 28.9688 22.1125 29.5313 22.4921 29.9063L25.8137 33.1875V44.7188H19.1705C18.9807 41.4375 17.652 38.25 15.2794 35.625C11.2935 31.2188 10.2496 25.3125 12.6221 19.7813C14.9947 14.3438 20.0246 10.7812 26.0035 10.5C32.362 10.2188 37.8664 13.5 40.5237 19.125C43.2759 24.8438 42.3269 31.2188 38.0562 35.8125Z" fill="#FBB017"/>
<path d="M26.9525 7.03125C27.522 7.03125 27.9016 6.65625 27.9016 6.09375V0.9375C27.9016 0.375 27.522 0 26.9525 0C26.3831 0 26.0035 0.375 26.0035 0.9375V6.09375C26.0035 6.5625 26.3831 7.03125 26.9525 7.03125Z" fill="#FBB017"/>
<path d="M15.754 9.28125C16.0387 9.75 16.6081 9.84375 17.0826 9.65625C17.5571 9.375 17.652 8.8125 17.4622 8.34375L14.8998 3.9375C14.6151 3.46875 14.0457 3.375 13.5712 3.5625C13.0967 3.84375 13.0018 4.40625 13.1916 4.875L15.754 9.28125Z" fill="#FBB017"/>
<path d="M3.98594 14.625L8.4464 17.1562C8.92091 17.4375 9.49033 17.25 9.77504 16.7812C10.0598 16.3125 9.86995 15.75 9.39543 15.4688L4.93497 12.9375C4.46046 12.6563 3.89104 12.8438 3.60633 13.3125C3.32162 13.7812 3.51142 14.3438 3.98594 14.625Z" fill="#FBB017"/>
<path d="M7.02285 26.625C7.02285 26.0625 6.64323 25.6875 6.07381 25.6875H0.949033C0.379613 25.6875 0 26.0625 0 26.625C0 27.1875 0.379613 27.5625 0.949033 27.5625H6.07381C6.64323 27.5625 7.02285 27.1875 7.02285 26.625Z" fill="#FBB017"/>
<path d="M8.4464 36.0938L3.98594 38.625C3.51142 38.9062 3.41652 39.4688 3.60633 39.9375C3.89104 40.4062 4.46046 40.5 4.93497 40.3125L9.39543 37.7812C9.86995 37.5 9.96485 36.9375 9.77504 36.4688C9.49033 36 8.92091 35.8125 8.4464 36.0938Z" fill="#FBB017"/>
<path d="M49.9192 38.7188L45.4587 36.1875C44.9842 35.9062 44.4148 36.0938 44.1301 36.5625C43.8453 37.0313 44.0352 37.5938 44.5097 37.875L48.9701 40.4063C49.4446 40.6875 50.0141 40.5 50.2988 40.0313C50.5835 39.4688 50.3937 38.9062 49.9192 38.7188Z" fill="#FBB017"/>
<path d="M52.9561 25.6875H47.8313C47.2619 25.6875 46.8822 26.0625 46.8822 26.625C46.8822 27.1875 47.2619 27.5625 47.8313 27.5625H53.051C53.6204 27.5625 54 27.1875 54 26.625C54 26.0625 53.5255 25.6875 52.9561 25.6875Z" fill="#FBB017"/>
<path d="M45.4587 17.1562L49.9192 14.625C50.3937 14.3438 50.4886 13.7812 50.2988 13.3125C50.109 12.8438 49.4446 12.75 48.9701 12.9375L44.5097 15.4688C44.0352 15.75 43.9402 16.3125 44.1301 16.7812C44.4148 17.25 44.9842 17.4375 45.4587 17.1562Z" fill="#FBB017"/>
<path d="M36.9174 9.65625C37.3919 9.9375 37.9613 9.75 38.2461 9.28125L40.8084 4.875C41.0931 4.40625 40.9033 3.84375 40.4288 3.5625C39.9543 3.28125 39.3849 3.46875 39.1002 3.9375L36.5378 8.34375C36.2531 8.8125 36.4429 9.375 36.9174 9.65625Z" fill="#FBB017"/>
</svg>
