<svg width="12" height="10" viewBox="0 0 12 10" fill="none" xmlns="http://www.w3.org/2000/svg">
<path d="M4.59979 0.866528L4.84708 0.431963L4.59979 0.866528C4.19532 0.63636 3.73259 0.509497 3.25768 0.500185C2.48961 0.535328 1.77213 0.855496 1.25846 1.3839C0.742556 1.9146 0.473765 2.61169 0.502025 3.32199L0.502419 3.33192V3.34186C0.502419 4.24637 1.01243 5.26142 1.83913 6.29134C2.65511 7.3079 3.72277 8.26906 4.71193 9.056L4.71228 9.05627C5.06963 9.34108 5.5255 9.5 6 9.5C6.4745 9.5 6.93037 9.34108 7.28772 9.05627L7.28807 9.056C8.27723 8.26906 9.34489 7.3079 10.1609 6.29134C10.9876 5.26142 11.4976 4.24637 11.4976 3.34186V3.33192L11.498 3.32198C11.5262 2.61169 11.2574 1.9146 10.7415 1.3839C10.2279 0.855496 9.51039 0.535328 8.74232 0.500185C8.26741 0.509497 7.80468 0.63636 7.40021 0.866528C6.99192 1.09887 6.65881 1.42737 6.43184 1.81629L6 2.55629L5.56816 1.81629C5.34119 1.42737 5.00808 1.09887 4.59979 0.866528Z" stroke="#FFFFFF"/>
</svg>
