<svg width="22" height="22" viewBox="0 0 22 22" fill="none" xmlns="http://www.w3.org/2000/svg">
<path d="M15.583 1.83337H6.41634C3.88634 1.83337 1.83301 3.87754 1.83301 6.39837V11.88V12.7967C1.83301 15.3175 3.88634 17.3617 6.41634 17.3617H7.79134C8.03884 17.3617 8.36884 17.5267 8.52467 17.7284L9.89967 19.5525C10.5047 20.3592 11.4947 20.3592 12.0997 19.5525L13.4747 17.7284C13.6488 17.4992 13.9238 17.3617 14.208 17.3617H15.583C18.113 17.3617 20.1663 15.3175 20.1663 12.7967V6.39837C20.1663 3.87754 18.113 1.83337 15.583 1.83337ZM11.9163 12.6042H6.41634C6.04051 12.6042 5.72884 12.2925 5.72884 11.9167C5.72884 11.5409 6.04051 11.2292 6.41634 11.2292H11.9163C12.2922 11.2292 12.6038 11.5409 12.6038 11.9167C12.6038 12.2925 12.2922 12.6042 11.9163 12.6042ZM15.583 8.02087H6.41634C6.04051 8.02087 5.72884 7.70921 5.72884 7.33337C5.72884 6.95754 6.04051 6.64587 6.41634 6.64587H15.583C15.9588 6.64587 16.2705 6.95754 16.2705 7.33337C16.2705 7.70921 15.9588 8.02087 15.583 8.02087Z" fill="#fdaf17"/>
</svg>
