<svg width="50" height="50" viewBox="0 0 50 50" fill="none" xmlns="http://www.w3.org/2000/svg">
<path d="M18.8553 20.1094C24.3994 20.1094 28.91 15.5988 28.91 10.0547C28.91 4.51055 24.3995 0 18.8553 0C13.311 0 8.80059 4.51055 8.80059 10.0547C8.80059 15.5988 13.3111 20.1094 18.8553 20.1094ZM18.8553 1.5625C23.5379 1.5625 27.3475 5.37207 27.3475 10.0547C27.3475 14.7373 23.5379 18.5469 18.8553 18.5469C14.1727 18.5469 10.3631 14.7373 10.3631 10.0547C10.3631 5.37207 14.1727 1.5625 18.8553 1.5625ZM42.3656 34.828C42.6707 35.1331 42.6707 35.6277 42.3656 35.9328L37.2144 41.0841C37.0617 41.2366 36.8618 41.3129 36.6619 41.3129C36.4619 41.3129 36.262 41.2366 36.1095 41.0841L33.5466 38.5212C33.2415 38.2161 33.2415 37.7215 33.5466 37.4164C33.8519 37.1112 34.3464 37.1114 34.6515 37.4164L36.6619 39.4269L41.2607 34.828C41.5661 34.5229 42.0606 34.523 42.3656 34.828ZM37.9562 25.9121C37.0081 25.9121 36.0855 26.0227 35.2001 26.2307C33.2021 23.6916 30.2644 22.0822 27.0586 21.7908C26.7101 21.7593 26.3798 21.9654 26.2563 22.2948L24.2042 27.7738L22.2358 32.9417L21.1847 27.3731L23.6118 22.8964C23.7431 22.6543 23.7371 22.361 23.5963 22.1244C23.4555 21.8878 23.2004 21.7428 22.925 21.7428H14.7853C14.5099 21.7428 14.2548 21.8877 14.114 22.1244C13.9731 22.361 13.9672 22.6543 14.0984 22.8964L16.5256 27.3731L15.4744 32.9416L13.5076 27.7778L11.4542 22.2949C11.3307 21.9654 11.0011 21.7595 10.6519 21.7909C7.76094 22.0536 5.07705 23.3863 3.09434 25.5435C1.09893 27.7144 0 30.5244 0 33.4559V44.8979C0 45.3294 0.349805 45.6792 0.78125 45.6792H28.7222C30.9332 48.3185 34.2518 50 37.9562 50C44.5972 50 50 44.5971 50 37.9561C50 31.315 44.5972 25.9121 37.9562 25.9121ZM1.5625 44.1167V33.4559C1.5625 28.4561 5.31396 24.1572 10.2063 23.4179L12.0462 28.3301L18.059 44.1167H1.5625ZM16.5378 35.7332L18.1127 27.3901C18.146 27.2136 18.1175 27.0309 18.0318 26.8729L16.0977 23.3055H21.6129L19.6787 26.8729C19.5931 27.0309 19.5646 27.2136 19.5979 27.3901L21.1728 35.7333L18.8554 41.8177L16.5378 35.7332ZM19.6516 44.1167L25.6659 28.3261L27.5042 23.4178C29.8531 23.7715 32.0024 24.9473 33.5854 26.7332C29.0987 28.4865 25.9121 32.856 25.9121 37.9561C25.9121 40.2058 26.5328 42.313 27.6109 44.1167H19.6516ZM37.9562 48.4375C32.1767 48.4375 27.4747 43.7355 27.4747 37.9561C27.4747 32.1766 32.1767 27.4746 37.9562 27.4746C43.7356 27.4746 48.4375 32.1766 48.4375 37.9561C48.4375 43.7355 43.7356 48.4375 37.9562 48.4375Z" fill="#FBB017"/>
</svg>
