<svg width="12" height="12" viewBox="0 0 12 12" fill="none" xmlns="http://www.w3.org/2000/svg">
<path d="M11.781 10.7226L9.45824 8.39906C11.1962 6.07667 10.7223 2.78517 8.39977 1.04731C6.07718 -0.690552 2.7854 -0.216694 1.0474 2.1057C-0.69061 4.42808 -0.216712 7.71959 2.10587 9.45745C3.97156 10.8534 6.53405 10.8534 8.39977 9.45745L10.7235 11.781C11.0155 12.073 11.489 12.073 11.781 11.781C12.073 11.489 12.073 11.0156 11.781 10.7236L11.781 10.7226ZM5.27218 9.00898C3.20798 9.00898 1.53463 7.33577 1.53463 5.27174C1.53463 3.20771 3.20798 1.5345 5.27218 1.5345C7.33638 1.5345 9.00973 3.20771 9.00973 5.27174C9.00754 7.33484 7.33547 9.00678 5.27218 9.00898Z" fill="#FFFFFF"/>
</svg>
