<svg width="15" height="17" viewBox="0 0 15 17" fill="none" xmlns="http://www.w3.org/2000/svg">
<path d="M11.6003 10.9397C10.8825 10.9397 10.2317 11.2315 9.76029 11.7022L5.92511 9.32687C6.01251 9.06693 6.06032 8.78896 6.06032 8.5C6.06032 8.21097 6.01252 7.93299 5.92512 7.67313L9.76029 5.29771C10.2317 5.76835 10.8825 6.06032 11.6003 6.06032C13.037 6.06032 14.2055 4.89178 14.2055 3.4551C14.2055 2.01841 13.037 0.85 11.6003 0.85C10.1636 0.85 8.9951 2.01854 8.9951 3.45522C8.9951 3.74421 9.04301 4.02217 9.13034 4.28206L5.29524 6.65739C4.82388 6.18675 4.17304 5.89478 3.45522 5.89478C2.01853 5.89478 0.85 7.06344 0.85 8.5C0.85 9.93668 2.01854 11.1052 3.45522 11.1052C4.17302 11.1052 4.82388 10.8134 5.29525 10.3426L9.13034 12.7179C9.04301 12.9778 8.9951 13.2558 8.9951 13.5449C8.9951 14.9815 10.1636 16.15 11.6003 16.15C13.037 16.15 14.2055 14.9815 14.2055 13.5449C14.2055 12.1082 13.037 10.9397 11.6003 10.9397ZM10.1904 3.45522C10.1904 2.67792 10.823 2.04527 11.6003 2.04527C12.3776 2.04527 13.0103 2.67792 13.0103 3.45522C13.0103 4.23251 12.3776 4.86516 11.6003 4.86516C10.823 4.86516 10.1904 4.23251 10.1904 3.45522ZM3.45522 9.90994C2.6778 9.90994 2.04516 9.27729 2.04516 8.5C2.04516 7.72271 2.6778 7.09006 3.45522 7.09006C4.2325 7.09006 4.86505 7.72269 4.86505 8.5C4.86505 9.27731 4.2325 9.90994 3.45522 9.90994ZM10.1904 13.5448C10.1904 12.7675 10.823 12.1348 11.6003 12.1348C12.3776 12.1348 13.0103 12.7675 13.0103 13.5448C13.0103 14.3221 12.3776 14.9547 11.6003 14.9547C10.823 14.9547 10.1904 14.3221 10.1904 13.5448Z" fill="#FFFFFF" stroke="#FFFFFF" stroke-width="0.3"/>
</svg>
