<svg width="50" height="50" viewBox="0 0 50 50" fill="none" xmlns="http://www.w3.org/2000/svg">
<path d="M21.108 33C28.4458 33 32.4599 27.2276 32.4599 22.2306C32.4599 22.069 32.4599 21.9052 32.4526 21.7437C33.2341 21.2066 33.9086 20.5416 34.4444 19.7799C33.7144 20.0855 32.9409 20.2869 32.1488 20.3776C32.9831 19.9041 33.608 19.1592 33.9073 18.2812C33.1234 18.7221 32.2655 19.0316 31.371 19.1961C30.7697 18.5881 29.9739 18.1853 29.107 18.0501C28.2402 17.915 27.3505 18.0549 26.5759 18.4484C25.8013 18.8419 25.185 19.4668 24.8224 20.2265C24.4598 20.9862 24.3712 21.8382 24.5703 22.6506C22.9841 22.575 21.4322 22.1838 20.0155 21.5022C18.5988 20.8207 17.3487 19.864 16.3465 18.6942C15.8377 19.5285 15.6825 20.5154 15.9122 21.4544C16.142 22.3934 16.7396 23.2142 17.5837 23.7501C16.9512 23.7297 16.3326 23.5685 15.7778 23.2794V23.3313C15.7789 24.2053 16.0978 25.0521 16.6806 25.7286C17.2634 26.4051 18.0743 26.8698 18.9764 27.0442C18.634 27.1337 18.2803 27.1784 17.9252 27.1768C17.6748 27.1776 17.4249 27.1555 17.179 27.1111C17.4339 27.8634 17.9304 28.5212 18.5987 28.9923C19.2671 29.4634 20.0739 29.7242 20.9063 29.7383C19.4923 30.7926 17.7458 31.3644 15.9479 31.3616C15.6311 31.3629 15.3145 31.3456 15 31.3097C16.8248 32.4142 18.9439 33.0006 21.108 33Z" fill="white"/>
<circle cx="25" cy="25" r="24.5" stroke="#6A6A6A"/>
</svg>
